# Blender 3.5.0
# www.blender.org
mtllib sphere.mtl
o Sphere
v 0.000000 0.382683 -0.923880
v 0.000000 0.000000 -1.000000
v 0.000000 -0.382683 -0.923880
v 0.000000 -0.923880 -0.382683
v 0.146447 0.923880 -0.353553
v 0.270598 0.707107 -0.653281
v 0.353553 0.382683 -0.853553
v 0.382683 0.000000 -0.923880
v 0.353553 -0.382683 -0.853553
v 0.270598 -0.707107 -0.653281
v 0.146447 -0.923880 -0.353553
v 0.270598 0.923880 -0.270598
v 0.500000 0.707107 -0.500000
v 0.653282 0.382683 -0.653281
v 0.707107 0.000000 -0.707107
v 0.653282 -0.382683 -0.653281
v 0.500000 -0.707107 -0.500000
v 0.270598 -0.923880 -0.270598
v 0.353553 0.923880 -0.146447
v 0.653281 0.707107 -0.270598
v 0.853553 0.382683 -0.353553
v 0.923880 0.000000 -0.382683
v 0.853553 -0.382683 -0.353553
v 0.653281 -0.707107 -0.270598
v 0.353553 -0.923880 -0.146447
v 0.382683 0.923880 0.000000
v 0.707107 0.707107 0.000000
v 0.923880 0.382683 0.000000
v 1.000000 0.000000 0.000000
v 0.923880 -0.382683 0.000000
v 0.707107 -0.707107 0.000000
v 0.382683 -0.923880 0.000000
v 0.353553 0.923880 0.146447
v 0.653281 0.707107 0.270598
v 0.853553 0.382683 0.353554
v 0.923879 0.000000 0.382684
v 0.853553 -0.382683 0.353554
v 0.653281 -0.707107 0.270598
v 0.353553 -0.923880 0.146447
v 0.270598 0.923880 0.270598
v 0.500000 0.707107 0.500000
v 0.653281 0.382683 0.653282
v 0.707107 0.000000 0.707107
v 0.653281 -0.382683 0.653282
v 0.500000 -0.707107 0.500000
v 0.270598 -0.923880 0.270598
v 0.146447 0.923880 0.353553
v 0.270598 0.707107 0.653281
v 0.353553 0.382683 0.853553
v 0.382683 0.000000 0.923880
v 0.353553 -0.382683 0.853553
v 0.270598 -0.707107 0.653281
v 0.146447 -0.923880 0.353553
v -0.000000 0.923880 0.382683
v -0.000000 0.707107 0.707107
v -0.000000 0.382683 0.923879
v -0.000000 0.000000 1.000000
v -0.000000 -0.382683 0.923879
v -0.000000 -0.707107 0.707107
v -0.000000 -0.923880 0.382683
v 0.000000 -1.000000 0.000000
v 0.000000 1.000000 0.000000
v -0.146447 0.923880 0.353553
v -0.270598 0.707107 0.653281
v -0.353554 0.382683 0.853553
v -0.382684 0.000000 0.923879
v -0.353554 -0.382683 0.853553
v -0.270598 -0.707107 0.653281
v -0.146447 -0.923880 0.353553
v -0.270598 0.923880 0.270598
v -0.500000 0.707107 0.500000
v -0.653282 0.382683 0.653281
v -0.707107 0.000000 0.707106
v -0.653282 -0.382683 0.653281
v -0.500000 -0.707107 0.500000
v -0.270598 -0.923880 0.270598
v -0.353553 0.923880 0.146446
v -0.653281 0.707107 0.270598
v -0.853553 0.382683 0.353553
v -0.923880 0.000000 0.382683
v -0.853553 -0.382683 0.353553
v -0.653281 -0.707107 0.270598
v -0.353553 -0.923880 0.146446
v -0.382683 0.923880 -0.000000
v -0.707107 0.707107 -0.000000
v -0.923879 0.382683 -0.000000
v -1.000000 0.000000 -0.000001
v -0.923879 -0.382683 -0.000000
v -0.707107 -0.707107 -0.000000
v -0.382683 -0.923880 -0.000000
v -0.353553 0.923880 -0.146447
v -0.653281 0.707107 -0.270598
v -0.853553 0.382683 -0.353554
v -0.923879 0.000000 -0.382684
v -0.853553 -0.382683 -0.353554
v -0.653281 -0.707107 -0.270598
v -0.353553 -0.923880 -0.146447
v -0.270598 0.923880 -0.270598
v -0.500000 0.707107 -0.500000
v -0.653281 0.382683 -0.653282
v -0.707106 0.000000 -0.707107
v -0.653281 -0.382683 -0.653282
v -0.500000 -0.707107 -0.500000
v -0.270598 -0.923880 -0.270598
v -0.146446 0.923880 -0.353554
v -0.270598 0.707107 -0.653281
v -0.353553 0.382683 -0.853553
v -0.382683 0.000000 -0.923880
v -0.353553 -0.382683 -0.853553
v -0.270598 -0.707107 -0.653281
v -0.146446 -0.923880 -0.353554
v 0.000000 0.923880 -0.382683
v 0.000000 0.707107 -0.707107
v 0.000000 -0.707107 -0.707107
vn 0.1632 0.5481 -0.8203
vn 0.0388 0.9800 -0.1949
vn 0.0388 -0.9800 -0.1949
vn 0.1632 -0.5481 -0.8203
vn 0.1915 0.1915 -0.9626
vn 0.1098 0.8264 -0.5522
vn 0.1098 -0.8264 -0.5522
vn 0.1915 -0.1915 -0.9626
vn 0.4647 -0.5481 -0.6954
vn 0.5453 0.1915 -0.8161
vn 0.3128 0.8264 -0.4681
vn 0.3128 -0.8264 -0.4681
vn 0.5453 -0.1915 -0.8161
vn 0.4647 0.5481 -0.6954
vn 0.1104 0.9800 -0.1653
vn 0.1104 -0.9800 -0.1653
vn 0.4681 -0.8264 -0.3128
vn 0.8161 -0.1915 -0.5453
vn 0.6954 0.5481 -0.4647
vn 0.1653 0.9800 -0.1104
vn 0.1653 -0.9800 -0.1104
vn 0.6954 -0.5481 -0.4647
vn 0.8161 0.1915 -0.5453
vn 0.4681 0.8264 -0.3128
vn 0.9626 -0.1915 -0.1915
vn 0.8203 0.5481 -0.1632
vn 0.1949 0.9800 -0.0388
vn 0.1949 -0.9800 -0.0388
vn 0.8203 -0.5481 -0.1632
vn 0.9626 0.1915 -0.1915
vn 0.5522 0.8264 -0.1098
vn 0.5522 -0.8264 -0.1098
vn 0.1949 -0.9800 0.0388
vn 0.8203 -0.5481 0.1632
vn 0.9626 0.1915 0.1915
vn 0.5522 0.8264 0.1098
vn 0.5522 -0.8264 0.1098
vn 0.9626 -0.1915 0.1915
vn 0.8203 0.5481 0.1632
vn 0.1949 0.9800 0.0388
vn 0.8161 0.1915 0.5453
vn 0.4681 0.8264 0.3128
vn 0.4681 -0.8264 0.3128
vn 0.8161 -0.1915 0.5453
vn 0.6954 0.5481 0.4647
vn 0.1653 0.9800 0.1104
vn 0.1653 -0.9800 0.1104
vn 0.6954 -0.5481 0.4647
vn 0.3128 -0.8264 0.4681
vn 0.5453 -0.1915 0.8161
vn 0.4647 0.5481 0.6954
vn 0.1104 0.9800 0.1653
vn 0.1104 -0.9800 0.1653
vn 0.4647 -0.5481 0.6954
vn 0.5453 0.1915 0.8161
vn 0.3128 0.8264 0.4681
vn 0.1632 0.5481 0.8203
vn 0.0388 0.9800 0.1949
vn 0.0388 -0.9800 0.1949
vn 0.1632 -0.5481 0.8203
vn 0.1915 0.1915 0.9626
vn 0.1098 0.8264 0.5522
vn 0.1098 -0.8264 0.5522
vn 0.1915 -0.1915 0.9626
vn -0.0388 -0.9800 0.1949
vn -0.1632 -0.5481 0.8203
vn -0.1915 0.1915 0.9626
vn -0.1098 0.8264 0.5522
vn -0.1098 -0.8264 0.5522
vn -0.1915 -0.1915 0.9626
vn -0.1632 0.5481 0.8203
vn -0.0388 0.9800 0.1949
vn -0.3128 0.8264 0.4681
vn -0.3128 -0.8264 0.4681
vn -0.5453 -0.1915 0.8161
vn -0.4647 0.5481 0.6954
vn -0.1104 0.9800 0.1653
vn -0.1104 -0.9800 0.1653
vn -0.4647 -0.5481 0.6954
vn -0.5453 0.1915 0.8161
vn -0.4681 -0.8264 0.3128
vn -0.8161 -0.1915 0.5453
vn -0.6954 0.5481 0.4647
vn -0.1653 0.9800 0.1104
vn -0.1653 -0.9800 0.1104
vn -0.6954 -0.5481 0.4647
vn -0.8161 0.1915 0.5453
vn -0.4681 0.8264 0.3128
vn -0.1949 0.9800 0.0388
vn -0.1949 -0.9800 0.0388
vn -0.8203 -0.5481 0.1632
vn -0.9626 0.1915 0.1915
vn -0.5522 0.8264 0.1098
vn -0.5522 -0.8264 0.1098
vn -0.9626 -0.1915 0.1915
vn -0.8203 0.5481 0.1632
vn -0.8203 -0.5481 -0.1632
vn -0.9626 0.1915 -0.1915
vn -0.5522 0.8264 -0.1098
vn -0.5522 -0.8264 -0.1098
vn -0.9626 -0.1915 -0.1915
vn -0.8203 0.5481 -0.1632
vn -0.1949 0.9800 -0.0388
vn -0.1949 -0.9800 -0.0388
vn -0.4681 -0.8264 -0.3128
vn -0.8161 -0.1915 -0.5453
vn -0.6954 0.5481 -0.4647
vn -0.1653 0.9800 -0.1104
vn -0.1653 -0.9800 -0.1104
vn -0.6954 -0.5481 -0.4647
vn -0.8161 0.1915 -0.5453
vn -0.4681 0.8264 -0.3128
vn -0.5453 -0.1915 -0.8161
vn -0.4647 0.5481 -0.6954
vn -0.1104 0.9800 -0.1653
vn -0.1104 -0.9800 -0.1653
vn -0.4647 -0.5481 -0.6954
vn -0.5453 0.1915 -0.8161
vn -0.3128 0.8264 -0.4681
vn -0.3128 -0.8264 -0.4681
vn -0.0388 -0.9800 -0.1949
vn -0.1632 -0.5481 -0.8203
vn -0.1915 0.1915 -0.9626
vn -0.1098 0.8264 -0.5522
vn -0.1098 -0.8264 -0.5522
vn -0.1915 -0.1915 -0.9626
vn -0.1632 0.5481 -0.8203
vn -0.0388 0.9800 -0.1949
vt 0.750000 0.625000
vt 0.750000 0.500000
vt 0.750000 0.375000
vt 0.750000 0.125000
vt 0.687500 0.875000
vt 0.687500 0.750000
vt 0.687500 0.625000
vt 0.687500 0.500000
vt 0.687500 0.375000
vt 0.687500 0.250000
vt 0.687500 0.125000
vt 0.625000 0.875000
vt 0.625000 0.750000
vt 0.625000 0.625000
vt 0.625000 0.500000
vt 0.625000 0.375000
vt 0.625000 0.250000
vt 0.625000 0.125000
vt 0.562500 0.875000
vt 0.562500 0.750000
vt 0.562500 0.625000
vt 0.562500 0.500000
vt 0.562500 0.375000
vt 0.562500 0.250000
vt 0.562500 0.125000
vt 0.500000 0.875000
vt 0.500000 0.750000
vt 0.500000 0.625000
vt 0.500000 0.500000
vt 0.500000 0.375000
vt 0.500000 0.250000
vt 0.500000 0.125000
vt 0.437500 0.875000
vt 0.437500 0.750000
vt 0.437500 0.625000
vt 0.437500 0.500000
vt 0.437500 0.375000
vt 0.437500 0.250000
vt 0.437500 0.125000
vt 0.375000 0.875000
vt 0.375000 0.750000
vt 0.375000 0.625000
vt 0.375000 0.500000
vt 0.375000 0.375000
vt 0.375000 0.250000
vt 0.375000 0.125000
vt 0.312500 0.875000
vt 0.312500 0.750000
vt 0.312500 0.625000
vt 0.312500 0.500000
vt 0.312500 0.375000
vt 0.312500 0.250000
vt 0.312500 0.125000
vt 0.250000 0.875000
vt 0.250000 0.750000
vt 0.250000 0.625000
vt 0.250000 0.500000
vt 0.250000 0.375000
vt 0.250000 0.250000
vt 0.250000 0.125000
vt 0.718750 0.000000
vt 0.656250 0.000000
vt 0.593750 0.000000
vt 0.531250 0.000000
vt 0.468750 0.000000
vt 0.406250 0.000000
vt 0.343750 0.000000
vt 0.281250 0.000000
vt 0.218750 0.000000
vt 0.156250 0.000000
vt 0.093750 0.000000
vt 0.031250 0.000000
vt 0.968750 0.000000
vt 0.906250 0.000000
vt 0.843750 0.000000
vt 0.781250 0.000000
vt 0.718750 1.000000
vt 0.656250 1.000000
vt 0.593750 1.000000
vt 0.531250 1.000000
vt 0.468750 1.000000
vt 0.406250 1.000000
vt 0.343750 1.000000
vt 0.281250 1.000000
vt 0.218750 1.000000
vt 0.156250 1.000000
vt 0.093750 1.000000
vt 0.031250 1.000000
vt 0.968750 1.000000
vt 0.906250 1.000000
vt 0.843750 1.000000
vt 0.781250 1.000000
vt 0.187500 0.875000
vt 0.187500 0.750000
vt 0.187500 0.625000
vt 0.187500 0.500000
vt 0.187500 0.375000
vt 0.187500 0.250000
vt 0.187500 0.125000
vt 0.125000 0.875000
vt 0.125000 0.750000
vt 0.125000 0.625000
vt 0.125000 0.500000
vt 0.125000 0.375000
vt 0.125000 0.250000
vt 0.125000 0.125000
vt 0.062500 0.875000
vt 0.062500 0.750000
vt 0.062500 0.625000
vt 0.062500 0.500000
vt 0.062500 0.375000
vt 0.062500 0.250000
vt 0.062500 0.125000
vt 0.000000 0.875000
vt 1.000000 0.875000
vt 0.000000 0.750000
vt 1.000000 0.750000
vt 0.000000 0.625000
vt 1.000000 0.625000
vt 0.000000 0.500000
vt 1.000000 0.500000
vt 0.000000 0.375000
vt 1.000000 0.375000
vt 0.000000 0.250000
vt 1.000000 0.250000
vt 0.000000 0.125000
vt 1.000000 0.125000
vt 0.937500 0.875000
vt 0.937500 0.750000
vt 0.937500 0.625000
vt 0.937500 0.500000
vt 0.937500 0.375000
vt 0.937500 0.250000
vt 0.937500 0.125000
vt 0.875000 0.875000
vt 0.875000 0.750000
vt 0.875000 0.625000
vt 0.875000 0.500000
vt 0.875000 0.375000
vt 0.875000 0.250000
vt 0.875000 0.125000
vt 0.812500 0.875000
vt 0.812500 0.750000
vt 0.812500 0.625000
vt 0.812500 0.500000
vt 0.812500 0.375000
vt 0.812500 0.250000
vt 0.812500 0.125000
vt 0.750000 0.875000
vt 0.750000 0.750000
vt 0.750000 0.250000
s 0
f 1/1/1 113/150/1 6/6/1 7/7/1
f 112/149/2 62/77/2 5/5/2
f 61/61/3 4/4/3 11/11/3
f 114/151/4 3/3/4 9/9/4 10/10/4
f 2/2/5 1/1/5 7/7/5 8/8/5
f 113/150/6 112/149/6 5/5/6 6/6/6
f 4/4/7 114/151/7 10/10/7 11/11/7
f 3/3/8 2/2/8 8/8/8 9/9/8
f 10/10/9 9/9/9 16/16/9 17/17/9
f 8/8/10 7/7/10 14/14/10 15/15/10
f 6/6/11 5/5/11 12/12/11 13/13/11
f 11/11/12 10/10/12 17/17/12 18/18/12
f 9/9/13 8/8/13 15/15/13 16/16/13
f 7/7/14 6/6/14 13/13/14 14/14/14
f 5/5/15 62/78/15 12/12/15
f 61/62/16 11/11/16 18/18/16
f 18/18/17 17/17/17 24/24/17 25/25/17
f 16/16/18 15/15/18 22/22/18 23/23/18
f 14/14/19 13/13/19 20/20/19 21/21/19
f 12/12/20 62/79/20 19/19/20
f 61/63/21 18/18/21 25/25/21
f 17/17/22 16/16/22 23/23/22 24/24/22
f 15/15/23 14/14/23 21/21/23 22/22/23
f 13/13/24 12/12/24 19/19/24 20/20/24
f 23/23/25 22/22/25 29/29/25 30/30/25
f 21/21/26 20/20/26 27/27/26 28/28/26
f 19/19/27 62/80/27 26/26/27
f 61/64/28 25/25/28 32/32/28
f 24/24/29 23/23/29 30/30/29 31/31/29
f 22/22/30 21/21/30 28/28/30 29/29/30
f 20/20/31 19/19/31 26/26/31 27/27/31
f 25/25/32 24/24/32 31/31/32 32/32/32
f 61/65/33 32/32/33 39/39/33
f 31/31/34 30/30/34 37/37/34 38/38/34
f 29/29/35 28/28/35 35/35/35 36/36/35
f 27/27/36 26/26/36 33/33/36 34/34/36
f 32/32/37 31/31/37 38/38/37 39/39/37
f 30/30/38 29/29/38 36/36/38 37/37/38
f 28/28/39 27/27/39 34/34/39 35/35/39
f 26/26/40 62/81/40 33/33/40
f 36/36/41 35/35/41 42/42/41 43/43/41
f 34/34/42 33/33/42 40/40/42 41/41/42
f 39/39/43 38/38/43 45/45/43 46/46/43
f 37/37/44 36/36/44 43/43/44 44/44/44
f 35/35/45 34/34/45 41/41/45 42/42/45
f 33/33/46 62/82/46 40/40/46
f 61/66/47 39/39/47 46/46/47
f 38/38/48 37/37/48 44/44/48 45/45/48
f 46/46/49 45/45/49 52/52/49 53/53/49
f 44/44/50 43/43/50 50/50/50 51/51/50
f 42/42/51 41/41/51 48/48/51 49/49/51
f 40/40/52 62/83/52 47/47/52
f 61/67/53 46/46/53 53/53/53
f 45/45/54 44/44/54 51/51/54 52/52/54
f 43/43/55 42/42/55 49/49/55 50/50/55
f 41/41/56 40/40/56 47/47/56 48/48/56
f 49/49/57 48/48/57 55/55/57 56/56/57
f 47/47/58 62/84/58 54/54/58
f 61/68/59 53/53/59 60/60/59
f 52/52/60 51/51/60 58/58/60 59/59/60
f 50/50/61 49/49/61 56/56/61 57/57/61
f 48/48/62 47/47/62 54/54/62 55/55/62
f 53/53/63 52/52/63 59/59/63 60/60/63
f 51/51/64 50/50/64 57/57/64 58/58/64
f 61/69/65 60/60/65 69/99/65
f 59/59/66 58/58/66 67/97/66 68/98/66
f 57/57/67 56/56/67 65/95/67 66/96/67
f 55/55/68 54/54/68 63/93/68 64/94/68
f 60/60/69 59/59/69 68/98/69 69/99/69
f 58/58/70 57/57/70 66/96/70 67/97/70
f 56/56/71 55/55/71 64/94/71 65/95/71
f 54/54/72 62/85/72 63/93/72
f 64/94/73 63/93/73 70/100/73 71/101/73
f 69/99/74 68/98/74 75/105/74 76/106/74
f 67/97/75 66/96/75 73/103/75 74/104/75
f 65/95/76 64/94/76 71/101/76 72/102/76
f 63/93/77 62/86/77 70/100/77
f 61/70/78 69/99/78 76/106/78
f 68/98/79 67/97/79 74/104/79 75/105/79
f 66/96/80 65/95/80 72/102/80 73/103/80
f 76/106/81 75/105/81 82/112/81 83/113/81
f 74/104/82 73/103/82 80/110/82 81/111/82
f 72/102/83 71/101/83 78/108/83 79/109/83
f 70/100/84 62/87/84 77/107/84
f 61/71/85 76/106/85 83/113/85
f 75/105/86 74/104/86 81/111/86 82/112/86
f 73/103/87 72/102/87 79/109/87 80/110/87
f 71/101/88 70/100/88 77/107/88 78/108/88
f 77/107/89 62/88/89 84/114/89
f 61/72/90 83/113/90 90/126/90
f 82/112/91 81/111/91 88/122/91 89/124/91
f 80/110/92 79/109/92 86/118/92 87/120/92
f 78/108/93 77/107/93 84/114/93 85/116/93
f 83/113/94 82/112/94 89/124/94 90/126/94
f 81/111/95 80/110/95 87/120/95 88/122/95
f 79/109/96 78/108/96 85/116/96 86/118/96
f 89/125/97 88/123/97 95/132/97 96/133/97
f 87/121/98 86/119/98 93/130/98 94/131/98
f 85/117/99 84/115/99 91/128/99 92/129/99
f 90/127/100 89/125/100 96/133/100 97/134/100
f 88/123/101 87/121/101 94/131/101 95/132/101
f 86/119/102 85/117/102 92/129/102 93/130/102
f 84/115/103 62/89/103 91/128/103
f 61/73/104 90/127/104 97/134/104
f 97/134/105 96/133/105 103/140/105 104/141/105
f 95/132/106 94/131/106 101/138/106 102/139/106
f 93/130/107 92/129/107 99/136/107 100/137/107
f 91/128/108 62/90/108 98/135/108
f 61/74/109 97/134/109 104/141/109
f 96/133/110 95/132/110 102/139/110 103/140/110
f 94/131/111 93/130/111 100/137/111 101/138/111
f 92/129/112 91/128/112 98/135/112 99/136/112
f 102/139/113 101/138/113 108/145/113 109/146/113
f 100/137/114 99/136/114 106/143/114 107/144/114
f 98/135/115 62/91/115 105/142/115
f 61/75/116 104/141/116 111/148/116
f 103/140/117 102/139/117 109/146/117 110/147/117
f 101/138/118 100/137/118 107/144/118 108/145/118
f 99/136/119 98/135/119 105/142/119 106/143/119
f 104/141/120 103/140/120 110/147/120 111/148/120
f 61/76/121 111/148/121 4/4/121
f 110/147/122 109/146/122 3/3/122 114/151/122
f 108/145/123 107/144/123 1/1/123 2/2/123
f 106/143/124 105/142/124 112/149/124 113/150/124
f 111/148/125 110/147/125 114/151/125 4/4/125
f 109/146/126 108/145/126 2/2/126 3/3/126
f 107/144/127 106/143/127 113/150/127 1/1/127
f 105/142/128 62/92/128 112/149/128
